<svg width="32" height="32" viewBox="0 0 32 32" fill="none" xmlns="http://www.w3.org/2000/svg">
<path d="M32.0022 13.3838V18.7703C32.0022 19.1273 31.8976 19.4649 31.7135 19.755C31.5387 20.0758 31.2655 20.3589 30.905 20.5654L22.8285 25.1833C22.4274 25.4121 21.9748 25.5139 21.5332 25.4986C21.0899 25.5139 20.6389 25.4121 20.2378 25.1833L16.6482 23.1303L20.8277 20.7411L21.5332 21.1428L27.4981 17.7326V14.4438L22.3775 11.5162L21.5378 11.035L21.5254 11.028L19.5636 12.1494L19.5511 12.1564L15.6775 14.3713L15.6291 14.3992V16.9613L14.9268 17.363L11.2608 19.4593C11.1796 19.2626 11.1328 19.0507 11.125 18.8303C11.125 18.8094 11.125 18.787 11.125 18.7661V13.3796C11.125 13.321 11.1281 13.2638 11.1328 13.2066C11.1328 13.2039 11.1328 13.2025 11.1328 13.2011C11.1531 12.8538 11.2748 12.5135 11.4871 12.2178C11.6572 11.9807 11.8851 11.7729 12.166 11.6125L15.4762 9.71979L20.244 6.99445C20.6451 6.76571 21.0977 6.6639 21.5394 6.67924C21.9826 6.6639 22.4337 6.76571 22.8348 6.99445L25.7064 8.63607L26.5585 9.12423L30.9097 11.6125C31.1906 11.7729 31.4185 11.9793 31.587 12.215C31.587 12.215 31.5886 12.2178 31.5902 12.2192C31.8492 12.5469 32.0022 12.9486 32.0022 13.381V13.3838Z" fill="url(#paint0_linear_2934_27703)"/>
<path d="M20.8772 13.2052V18.5907C20.8772 18.9505 20.7726 19.2881 20.587 19.5796C20.5448 19.6466 20.498 19.7121 20.4465 19.7735L20.459 19.7805C20.2889 20.0162 20.0611 20.2254 19.7787 20.3858L16.4693 22.2786L11.704 25.0042C11.303 25.2329 10.8505 25.3362 10.4089 25.3208C9.96579 25.3362 9.51488 25.2343 9.11386 25.0042L6.2335 23.3569L5.38157 22.8701L1.03918 20.3858C0.366677 20.0022 0 19.3523 0 18.6883C0 18.673 0 18.659 0 18.6451V18.6423C0 18.6256 0 18.6074 0 18.5907V13.2052C0 13.155 0.00156033 13.1061 0.0062413 13.0573C0.0062413 13.0517 0.0062413 13.0447 0.0062413 13.0392C0.0390081 12.4087 0.402564 11.8019 1.0423 11.4365L9.11856 6.81813C9.51954 6.58938 9.97206 6.48616 10.4136 6.5015C10.8568 6.48616 11.3077 6.58798 11.7087 6.81813L15.2943 8.86856L11.1158 11.2579L10.4136 10.8562L4.50466 14.2359V17.5878L9.56011 20.4793L10.4089 20.9647L10.4121 20.9675L12.3765 19.8446L12.442 19.807L16.3241 17.5864L16.3725 17.5585V14.9961L17.0122 14.6307L20.7133 12.5133L20.7352 12.5008C20.8273 12.7198 20.8772 12.9569 20.8772 13.2052Z" fill="url(#paint1_linear_2934_27703)"/>
<defs>
<linearGradient id="paint0_linear_2934_27703" x1="21.5636" y1="6.67773" x2="21.5636" y2="25.5001" gradientUnits="userSpaceOnUse">
<stop stop-color="#012AF9"/>
<stop offset="1" stop-color="#011993"/>
</linearGradient>
<linearGradient id="paint1_linear_2934_27703" x1="10.4386" y1="6.5" x2="10.4386" y2="25.3223" gradientUnits="userSpaceOnUse">
<stop stop-color="#012AF9"/>
<stop offset="1" stop-color="#011993"/>
</linearGradient>
</defs>
</svg>
